<svg id="visual" viewBox="0 0 900 900" width="900" height="900" xmlns="http://www.w3.org/2000/svg" xmlns:xlink="http://www.w3.org/1999/xlink" version="1.1"><g stroke-width="1" stroke-linejoin="bevel"><path d="M490.9 490.9L490.9 409.1L409.1 409.1Z" fill="#7ea629" stroke="#7ea629"></path><path d="M409.1 409.1L409.1 490.9L490.9 490.9Z" fill="#16421f" stroke="#16421f"></path><path d="M409.1 409.1L327.3 490.9L409.1 490.9Z" fill="#59892a" stroke="#59892a"></path><path d="M409.1 572.7L490.9 572.7L409.1 490.9Z" fill="#3a6c28" stroke="#3a6c28"></path><path d="M409.1 490.9L490.9 572.7L490.9 490.9Z" fill="#7ea629" stroke="#7ea629"></path><path d="M490.9 409.1L490.9 327.3L409.1 409.1Z" fill="#072815" stroke="#072815"></path><path d="M572.7 572.7L572.7 490.9L490.9 490.9Z" fill="#6b982a" stroke="#6b982a"></path><path d="M490.9 490.9L572.7 490.9L490.9 409.1Z" fill="#6b982a" stroke="#6b982a"></path><path d="M490.9 409.1L572.7 409.1L490.9 327.3Z" fill="#0d351a" stroke="#0d351a"></path><path d="M490.9 327.3L409.1 327.3L409.1 409.1Z" fill="#205023" stroke="#205023"></path><path d="M409.1 409.1L327.3 409.1L327.3 490.9Z" fill="#16421f" stroke="#16421f"></path><path d="M409.1 327.3L327.3 409.1L409.1 409.1Z" fill="#2c5e26" stroke="#2c5e26"></path><path d="M572.7 490.9L572.7 409.1L490.9 409.1Z" fill="#205023" stroke="#205023"></path><path d="M327.3 490.9L409.1 572.7L409.1 490.9Z" fill="#072815" stroke="#072815"></path><path d="M572.7 409.1L572.7 327.3L490.9 327.3Z" fill="#497b2a" stroke="#497b2a"></path><path d="M490.9 572.7L572.7 572.7L490.9 490.9Z" fill="#6b982a" stroke="#6b982a"></path><path d="M409.1 327.3L327.3 327.3L327.3 409.1Z" fill="#205023" stroke="#205023"></path><path d="M327.3 490.9L327.3 572.7L409.1 572.7Z" fill="#3a6c28" stroke="#3a6c28"></path><path d="M572.7 572.7L654.5 490.9L572.7 490.9Z" fill="#7ea629" stroke="#7ea629"></path><path d="M572.7 490.9L654.5 409.1L572.7 409.1Z" fill="#497b2a" stroke="#497b2a"></path><path d="M572.7 409.1L654.5 327.3L572.7 327.3Z" fill="#072815" stroke="#072815"></path><path d="M409.1 654.5L490.9 654.5L490.9 572.7Z" fill="#16421f" stroke="#16421f"></path><path d="M490.9 572.7L490.9 654.5L572.7 572.7Z" fill="#072815" stroke="#072815"></path><path d="M409.1 654.5L490.9 572.7L409.1 572.7Z" fill="#59892a" stroke="#59892a"></path><path d="M654.5 490.9L654.5 409.1L572.7 490.9Z" fill="#205023" stroke="#205023"></path><path d="M327.3 654.5L409.1 654.5L409.1 572.7Z" fill="#16421f" stroke="#16421f"></path><path d="M327.3 409.1L245.5 490.9L327.3 490.9Z" fill="#6b982a" stroke="#6b982a"></path><path d="M327.3 490.9L245.5 490.9L327.3 572.7Z" fill="#59892a" stroke="#59892a"></path><path d="M245.5 409.1L245.5 490.9L327.3 409.1Z" fill="#7ea629" stroke="#7ea629"></path><path d="M572.7 327.3L490.9 245.5L490.9 327.3Z" fill="#6b982a" stroke="#6b982a"></path><path d="M490.9 327.3L490.9 245.5L409.1 327.3Z" fill="#16421f" stroke="#16421f"></path><path d="M409.1 327.3L409.1 245.5L327.3 327.3Z" fill="#072815" stroke="#072815"></path><path d="M327.3 327.3L245.5 409.1L327.3 409.1Z" fill="#072815" stroke="#072815"></path><path d="M490.9 245.5L409.1 245.5L409.1 327.3Z" fill="#59892a" stroke="#59892a"></path><path d="M490.9 654.5L572.7 654.5L572.7 572.7Z" fill="#2c5e26" stroke="#2c5e26"></path><path d="M572.7 572.7L654.5 572.7L654.5 490.9Z" fill="#001c0d" stroke="#001c0d"></path><path d="M654.5 654.5L654.5 572.7L572.7 572.7Z" fill="#6b982a" stroke="#6b982a"></path><path d="M654.5 409.1L654.5 327.3L572.7 409.1Z" fill="#7ea629" stroke="#7ea629"></path><path d="M572.7 327.3L572.7 245.5L490.9 245.5Z" fill="#0d351a" stroke="#0d351a"></path><path d="M245.5 654.5L327.3 654.5L327.3 572.7Z" fill="#3a6c28" stroke="#3a6c28"></path><path d="M327.3 572.7L327.3 654.5L409.1 572.7Z" fill="#205023" stroke="#205023"></path><path d="M245.5 490.9L245.5 572.7L327.3 572.7Z" fill="#7ea629" stroke="#7ea629"></path><path d="M327.3 245.5L245.5 327.3L327.3 327.3Z" fill="#59892a" stroke="#59892a"></path><path d="M327.3 327.3L245.5 327.3L245.5 409.1Z" fill="#16421f" stroke="#16421f"></path><path d="M654.5 245.5L572.7 245.5L572.7 327.3Z" fill="#59892a" stroke="#59892a"></path><path d="M409.1 245.5L327.3 245.5L327.3 327.3Z" fill="#001c0d" stroke="#001c0d"></path><path d="M654.5 572.7L736.4 490.9L654.5 490.9Z" fill="#205023" stroke="#205023"></path><path d="M654.5 490.9L736.4 409.1L654.5 409.1Z" fill="#0d351a" stroke="#0d351a"></path><path d="M654.5 409.1L736.4 327.3L654.5 327.3Z" fill="#497b2a" stroke="#497b2a"></path><path d="M736.4 490.9L736.4 409.1L654.5 490.9Z" fill="#205023" stroke="#205023"></path><path d="M409.1 736.4L490.9 736.4L490.9 654.5Z" fill="#6b982a" stroke="#6b982a"></path><path d="M490.9 654.5L490.9 736.4L572.7 654.5Z" fill="#6b982a" stroke="#6b982a"></path><path d="M409.1 736.4L490.9 654.5L409.1 654.5Z" fill="#3a6c28" stroke="#3a6c28"></path><path d="M327.3 736.4L409.1 736.4L409.1 654.5Z" fill="#16421f" stroke="#16421f"></path><path d="M572.7 654.5L654.5 654.5L572.7 572.7Z" fill="#59892a" stroke="#59892a"></path><path d="M654.5 572.7L736.4 572.7L736.4 490.9Z" fill="#3a6c28" stroke="#3a6c28"></path><path d="M654.5 736.4L654.5 654.5L572.7 654.5Z" fill="#072815" stroke="#072815"></path><path d="M245.5 572.7L245.5 654.5L327.3 572.7Z" fill="#7ea629" stroke="#7ea629"></path><path d="M327.3 654.5L327.3 736.4L409.1 654.5Z" fill="#2c5e26" stroke="#2c5e26"></path><path d="M736.4 245.5L654.5 245.5L654.5 327.3Z" fill="#6b982a" stroke="#6b982a"></path><path d="M654.5 327.3L654.5 245.5L572.7 327.3Z" fill="#072815" stroke="#072815"></path><path d="M327.3 245.5L245.5 245.5L245.5 327.3Z" fill="#001c0d" stroke="#001c0d"></path><path d="M572.7 245.5L490.9 163.6L490.9 245.5Z" fill="#59892a" stroke="#59892a"></path><path d="M490.9 245.5L490.9 163.6L409.1 245.5Z" fill="#072815" stroke="#072815"></path><path d="M409.1 245.5L409.1 163.6L327.3 245.5Z" fill="#072815" stroke="#072815"></path><path d="M327.3 245.5L327.3 163.6L245.5 245.5Z" fill="#497b2a" stroke="#497b2a"></path><path d="M572.7 163.6L490.9 163.6L572.7 245.5Z" fill="#497b2a" stroke="#497b2a"></path><path d="M490.9 163.6L409.1 163.6L409.1 245.5Z" fill="#6b982a" stroke="#6b982a"></path><path d="M245.5 327.3L163.6 409.1L245.5 409.1Z" fill="#072815" stroke="#072815"></path><path d="M245.5 409.1L163.6 409.1L245.5 490.9Z" fill="#072815" stroke="#072815"></path><path d="M245.5 490.9L163.6 490.9L245.5 572.7Z" fill="#16421f" stroke="#16421f"></path><path d="M245.5 572.7L163.6 654.5L245.5 654.5Z" fill="#2c5e26" stroke="#2c5e26"></path><path d="M163.6 327.3L163.6 409.1L245.5 327.3Z" fill="#59892a" stroke="#59892a"></path><path d="M163.6 409.1L163.6 490.9L245.5 490.9Z" fill="#2c5e26" stroke="#2c5e26"></path><path d="M736.4 654.5L736.4 572.7L654.5 572.7Z" fill="#3a6c28" stroke="#3a6c28"></path><path d="M736.4 409.1L736.4 327.3L654.5 409.1Z" fill="#16421f" stroke="#16421f"></path><path d="M490.9 736.4L572.7 736.4L572.7 654.5Z" fill="#16421f" stroke="#16421f"></path><path d="M245.5 736.4L327.3 736.4L327.3 654.5Z" fill="#7ea629" stroke="#7ea629"></path><path d="M245.5 245.5L163.6 327.3L245.5 327.3Z" fill="#2c5e26" stroke="#2c5e26"></path><path d="M654.5 163.6L572.7 163.6L572.7 245.5Z" fill="#072815" stroke="#072815"></path><path d="M163.6 490.9L163.6 572.7L245.5 572.7Z" fill="#7ea629" stroke="#7ea629"></path><path d="M409.1 163.6L327.3 163.6L327.3 245.5Z" fill="#072815" stroke="#072815"></path><path d="M572.7 736.4L654.5 736.4L572.7 654.5Z" fill="#7ea629" stroke="#7ea629"></path><path d="M654.5 654.5L736.4 654.5L654.5 572.7Z" fill="#072815" stroke="#072815"></path><path d="M736.4 736.4L736.4 654.5L654.5 654.5Z" fill="#001c0d" stroke="#001c0d"></path><path d="M163.6 736.4L245.5 736.4L245.5 654.5Z" fill="#2c5e26" stroke="#2c5e26"></path><path d="M245.5 654.5L245.5 736.4L327.3 654.5Z" fill="#001c0d" stroke="#001c0d"></path><path d="M736.4 327.3L736.4 245.5L654.5 327.3Z" fill="#2c5e26" stroke="#2c5e26"></path><path d="M654.5 245.5L654.5 163.6L572.7 245.5Z" fill="#6b982a" stroke="#6b982a"></path><path d="M736.4 163.6L654.5 163.6L654.5 245.5Z" fill="#7ea629" stroke="#7ea629"></path><path d="M163.6 572.7L163.6 654.5L245.5 572.7Z" fill="#205023" stroke="#205023"></path><path d="M245.5 163.6L163.6 245.5L245.5 245.5Z" fill="#6b982a" stroke="#6b982a"></path><path d="M245.5 245.5L163.6 245.5L163.6 327.3Z" fill="#497b2a" stroke="#497b2a"></path><path d="M327.3 163.6L245.5 163.6L245.5 245.5Z" fill="#2c5e26" stroke="#2c5e26"></path><path d="M490.9 736.4L572.7 818.2L572.7 736.4Z" fill="#205023" stroke="#205023"></path><path d="M572.7 736.4L572.7 818.2L654.5 736.4Z" fill="#0d351a" stroke="#0d351a"></path><path d="M409.1 736.4L490.9 818.2L490.9 736.4Z" fill="#072815" stroke="#072815"></path><path d="M409.1 818.2L490.9 818.2L409.1 736.4Z" fill="#3a6c28" stroke="#3a6c28"></path><path d="M409.1 818.2L409.1 736.4L327.3 736.4Z" fill="#001c0d" stroke="#001c0d"></path><path d="M818.2 572.7L736.4 490.9L736.4 572.7Z" fill="#2c5e26" stroke="#2c5e26"></path><path d="M818.2 572.7L818.2 490.9L736.4 490.9Z" fill="#7ea629" stroke="#7ea629"></path><path d="M736.4 490.9L818.2 490.9L736.4 409.1Z" fill="#072815" stroke="#072815"></path><path d="M736.4 409.1L818.2 409.1L736.4 327.3Z" fill="#001c0d" stroke="#001c0d"></path><path d="M736.4 327.3L818.2 327.3L736.4 245.5Z" fill="#7ea629" stroke="#7ea629"></path><path d="M818.2 490.9L818.2 409.1L736.4 409.1Z" fill="#6b982a" stroke="#6b982a"></path><path d="M327.3 818.2L409.1 818.2L327.3 736.4Z" fill="#072815" stroke="#072815"></path><path d="M163.6 490.9L81.8 490.9L163.6 572.7Z" fill="#3a6c28" stroke="#3a6c28"></path><path d="M163.6 572.7L81.8 654.5L163.6 654.5Z" fill="#2c5e26" stroke="#2c5e26"></path><path d="M163.6 409.1L81.8 490.9L163.6 490.9Z" fill="#001c0d" stroke="#001c0d"></path><path d="M81.8 409.1L81.8 490.9L163.6 409.1Z" fill="#072815" stroke="#072815"></path><path d="M81.8 409.1L163.6 409.1L163.6 327.3Z" fill="#2c5e26" stroke="#2c5e26"></path><path d="M409.1 163.6L409.1 81.8L327.3 163.6Z" fill="#6b982a" stroke="#6b982a"></path><path d="M327.3 163.6L327.3 81.8L245.5 163.6Z" fill="#497b2a" stroke="#497b2a"></path><path d="M490.9 163.6L409.1 81.8L409.1 163.6Z" fill="#59892a" stroke="#59892a"></path><path d="M490.9 81.8L409.1 81.8L490.9 163.6Z" fill="#59892a" stroke="#59892a"></path><path d="M490.9 81.8L490.9 163.6L572.7 163.6Z" fill="#001c0d" stroke="#001c0d"></path><path d="M81.8 327.3L81.8 409.1L163.6 327.3Z" fill="#205023" stroke="#205023"></path><path d="M572.7 81.8L490.9 81.8L572.7 163.6Z" fill="#072815" stroke="#072815"></path><path d="M245.5 736.4L327.3 818.2L327.3 736.4Z" fill="#072815" stroke="#072815"></path><path d="M245.5 818.2L327.3 818.2L245.5 736.4Z" fill="#2c5e26" stroke="#2c5e26"></path><path d="M736.4 654.5L818.2 572.7L736.4 572.7Z" fill="#0d351a" stroke="#0d351a"></path><path d="M818.2 654.5L818.2 572.7L736.4 654.5Z" fill="#3a6c28" stroke="#3a6c28"></path><path d="M490.9 818.2L572.7 818.2L490.9 736.4Z" fill="#497b2a" stroke="#497b2a"></path><path d="M654.5 736.4L736.4 736.4L654.5 654.5Z" fill="#16421f" stroke="#16421f"></path><path d="M818.2 409.1L818.2 327.3L736.4 327.3Z" fill="#0d351a" stroke="#0d351a"></path><path d="M736.4 245.5L736.4 163.6L654.5 245.5Z" fill="#2c5e26" stroke="#2c5e26"></path><path d="M409.1 81.8L327.3 81.8L327.3 163.6Z" fill="#59892a" stroke="#59892a"></path><path d="M81.8 490.9L81.8 572.7L163.6 572.7Z" fill="#59892a" stroke="#59892a"></path><path d="M163.6 654.5L163.6 736.4L245.5 654.5Z" fill="#0d351a" stroke="#0d351a"></path><path d="M654.5 81.8L572.7 81.8L572.7 163.6Z" fill="#3a6c28" stroke="#3a6c28"></path><path d="M654.5 81.8L572.7 163.6L654.5 163.6Z" fill="#205023" stroke="#205023"></path><path d="M163.6 245.5L81.8 327.3L163.6 327.3Z" fill="#001c0d" stroke="#001c0d"></path><path d="M654.5 818.2L736.4 736.4L654.5 736.4Z" fill="#3a6c28" stroke="#3a6c28"></path><path d="M81.8 736.4L163.6 736.4L163.6 654.5Z" fill="#7ea629" stroke="#7ea629"></path><path d="M818.2 245.5L736.4 163.6L736.4 245.5Z" fill="#001c0d" stroke="#001c0d"></path><path d="M245.5 163.6L163.6 163.6L163.6 245.5Z" fill="#072815" stroke="#072815"></path><path d="M163.6 245.5L81.8 245.5L81.8 327.3Z" fill="#3a6c28" stroke="#3a6c28"></path><path d="M245.5 81.8L163.6 163.6L245.5 163.6Z" fill="#205023" stroke="#205023"></path><path d="M736.4 736.4L818.2 654.5L736.4 654.5Z" fill="#0d351a" stroke="#0d351a"></path><path d="M572.7 818.2L654.5 818.2L654.5 736.4Z" fill="#2c5e26" stroke="#2c5e26"></path><path d="M736.4 736.4L818.2 736.4L818.2 654.5Z" fill="#205023" stroke="#205023"></path><path d="M163.6 736.4L245.5 818.2L245.5 736.4Z" fill="#6b982a" stroke="#6b982a"></path><path d="M818.2 327.3L818.2 245.5L736.4 245.5Z" fill="#7ea629" stroke="#7ea629"></path><path d="M736.4 81.8L654.5 163.6L736.4 163.6Z" fill="#3a6c28" stroke="#3a6c28"></path><path d="M736.4 81.8L654.5 81.8L654.5 163.6Z" fill="#205023" stroke="#205023"></path><path d="M81.8 572.7L81.8 654.5L163.6 572.7Z" fill="#001c0d" stroke="#001c0d"></path><path d="M163.6 736.4L163.6 818.2L245.5 818.2Z" fill="#497b2a" stroke="#497b2a"></path><path d="M163.6 163.6L81.8 245.5L163.6 245.5Z" fill="#16421f" stroke="#16421f"></path><path d="M327.3 81.8L245.5 81.8L245.5 163.6Z" fill="#6b982a" stroke="#6b982a"></path><path d="M327.3 900L409.1 900L327.3 818.2Z" fill="#205023" stroke="#205023"></path><path d="M327.3 818.2L409.1 900L409.1 818.2Z" fill="#497b2a" stroke="#497b2a"></path><path d="M409.1 818.2L409.1 900L490.9 818.2Z" fill="#205023" stroke="#205023"></path><path d="M490.9 818.2L572.7 900L572.7 818.2Z" fill="#59892a" stroke="#59892a"></path><path d="M572.7 818.2L572.7 900L654.5 818.2Z" fill="#0d351a" stroke="#0d351a"></path><path d="M409.1 900L490.9 900L490.9 818.2Z" fill="#7ea629" stroke="#7ea629"></path><path d="M818.2 409.1L900 409.1L818.2 327.3Z" fill="#16421f" stroke="#16421f"></path><path d="M818.2 327.3L900 327.3L818.2 245.5Z" fill="#0d351a" stroke="#0d351a"></path><path d="M818.2 490.9L900 409.1L818.2 409.1Z" fill="#59892a" stroke="#59892a"></path><path d="M900 490.9L900 409.1L818.2 490.9Z" fill="#16421f" stroke="#16421f"></path><path d="M900 490.9L818.2 490.9L900 572.7Z" fill="#001c0d" stroke="#001c0d"></path><path d="M81.8 490.9L0 490.9L81.8 572.7Z" fill="#3a6c28" stroke="#3a6c28"></path><path d="M81.8 572.7L0 654.5L81.8 654.5Z" fill="#072815" stroke="#072815"></path><path d="M81.8 409.1L0 490.9L81.8 490.9Z" fill="#001c0d" stroke="#001c0d"></path><path d="M0 409.1L0 490.9L81.8 409.1Z" fill="#072815" stroke="#072815"></path><path d="M0 409.1L81.8 409.1L81.8 327.3Z" fill="#16421f" stroke="#16421f"></path><path d="M409.1 81.8L409.1 0L327.3 81.8Z" fill="#16421f" stroke="#16421f"></path><path d="M327.3 81.8L327.3 0L245.5 81.8Z" fill="#072815" stroke="#072815"></path><path d="M490.9 81.8L409.1 0L409.1 81.8Z" fill="#001c0d" stroke="#001c0d"></path><path d="M490.9 0L409.1 0L490.9 81.8Z" fill="#7ea629" stroke="#7ea629"></path><path d="M490.9 0L490.9 81.8L572.7 81.8Z" fill="#205023" stroke="#205023"></path><path d="M0 327.3L0 409.1L81.8 327.3Z" fill="#3a6c28" stroke="#3a6c28"></path><path d="M572.7 0L490.9 0L572.7 81.8Z" fill="#16421f" stroke="#16421f"></path><path d="M900 572.7L818.2 490.9L818.2 572.7Z" fill="#2c5e26" stroke="#2c5e26"></path><path d="M654.5 818.2L736.4 818.2L736.4 736.4Z" fill="#59892a" stroke="#59892a"></path><path d="M654.5 900L736.4 818.2L654.5 818.2Z" fill="#6b982a" stroke="#6b982a"></path><path d="M818.2 818.2L818.2 736.4L736.4 736.4Z" fill="#001c0d" stroke="#001c0d"></path><path d="M818.2 654.5L900 572.7L818.2 572.7Z" fill="#7ea629" stroke="#7ea629"></path><path d="M81.8 654.5L81.8 736.4L163.6 654.5Z" fill="#001c0d" stroke="#001c0d"></path><path d="M0 736.4L81.8 736.4L81.8 654.5Z" fill="#497b2a" stroke="#497b2a"></path><path d="M81.8 736.4L163.6 818.2L163.6 736.4Z" fill="#3a6c28" stroke="#3a6c28"></path><path d="M245.5 818.2L327.3 900L327.3 818.2Z" fill="#16421f" stroke="#16421f"></path><path d="M818.2 245.5L818.2 163.6L736.4 163.6Z" fill="#6b982a" stroke="#6b982a"></path><path d="M900 245.5L818.2 163.6L818.2 245.5Z" fill="#205023" stroke="#205023"></path><path d="M818.2 163.6L736.4 81.8L736.4 163.6Z" fill="#205023" stroke="#205023"></path><path d="M654.5 0L572.7 0L572.7 81.8Z" fill="#16421f" stroke="#16421f"></path><path d="M0 490.9L0 572.7L81.8 572.7Z" fill="#7ea629" stroke="#7ea629"></path><path d="M245.5 900L327.3 900L245.5 818.2Z" fill="#2c5e26" stroke="#2c5e26"></path><path d="M409.1 0L327.3 0L327.3 81.8Z" fill="#072815" stroke="#072815"></path><path d="M654.5 0L572.7 81.8L654.5 81.8Z" fill="#6b982a" stroke="#6b982a"></path><path d="M163.6 163.6L81.8 163.6L81.8 245.5Z" fill="#16421f" stroke="#16421f"></path><path d="M245.5 81.8L163.6 81.8L163.6 163.6Z" fill="#2c5e26" stroke="#2c5e26"></path><path d="M245.5 0L163.6 81.8L245.5 81.8Z" fill="#7ea629" stroke="#7ea629"></path><path d="M490.9 900L572.7 900L490.9 818.2Z" fill="#6b982a" stroke="#6b982a"></path><path d="M900 409.1L900 327.3L818.2 327.3Z" fill="#072815" stroke="#072815"></path><path d="M163.6 81.8L81.8 163.6L163.6 163.6Z" fill="#59892a" stroke="#59892a"></path><path d="M81.8 245.5L0 327.3L81.8 327.3Z" fill="#0d351a" stroke="#0d351a"></path><path d="M900 654.5L900 572.7L818.2 654.5Z" fill="#001c0d" stroke="#001c0d"></path><path d="M0 245.5L0 327.3L81.8 245.5Z" fill="#497b2a" stroke="#497b2a"></path><path d="M0 572.7L0 654.5L81.8 572.7Z" fill="#2c5e26" stroke="#2c5e26"></path><path d="M81.8 736.4L81.8 818.2L163.6 818.2Z" fill="#59892a" stroke="#59892a"></path><path d="M572.7 900L654.5 900L654.5 818.2Z" fill="#3a6c28" stroke="#3a6c28"></path><path d="M736.4 818.2L818.2 818.2L736.4 736.4Z" fill="#7ea629" stroke="#7ea629"></path><path d="M818.2 736.4L900 654.5L818.2 654.5Z" fill="#6b982a" stroke="#6b982a"></path><path d="M900 736.4L900 654.5L818.2 736.4Z" fill="#001c0d" stroke="#001c0d"></path><path d="M736.4 0L654.5 0L654.5 81.8Z" fill="#497b2a" stroke="#497b2a"></path><path d="M736.4 0L654.5 81.8L736.4 81.8Z" fill="#2c5e26" stroke="#2c5e26"></path><path d="M327.3 0L245.5 0L245.5 81.8Z" fill="#16421f" stroke="#16421f"></path><path d="M163.6 818.2L245.5 900L245.5 818.2Z" fill="#0d351a" stroke="#0d351a"></path><path d="M163.6 900L245.5 900L163.6 818.2Z" fill="#205023" stroke="#205023"></path><path d="M81.8 163.6L0 245.5L81.8 245.5Z" fill="#6b982a" stroke="#6b982a"></path><path d="M900 327.3L900 245.5L818.2 245.5Z" fill="#0d351a" stroke="#0d351a"></path><path d="M818.2 163.6L818.2 81.8L736.4 81.8Z" fill="#59892a" stroke="#59892a"></path><path d="M818.2 900L818.2 818.2L736.4 818.2Z" fill="#001c0d" stroke="#001c0d"></path><path d="M900 163.6L818.2 81.8L818.2 163.6Z" fill="#205023" stroke="#205023"></path><path d="M0 736.4L81.8 818.2L81.8 736.4Z" fill="#497b2a" stroke="#497b2a"></path><path d="M163.6 81.8L81.8 81.8L81.8 163.6Z" fill="#072815" stroke="#072815"></path><path d="M81.8 163.6L0 163.6L0 245.5Z" fill="#497b2a" stroke="#497b2a"></path><path d="M163.6 0L81.8 81.8L163.6 81.8Z" fill="#072815" stroke="#072815"></path><path d="M0 654.5L0 736.4L81.8 654.5Z" fill="#59892a" stroke="#59892a"></path><path d="M654.5 900L736.4 900L736.4 818.2Z" fill="#7ea629" stroke="#7ea629"></path><path d="M818.2 81.8L736.4 0L736.4 81.8Z" fill="#7ea629" stroke="#7ea629"></path><path d="M900 818.2L900 736.4L818.2 736.4Z" fill="#072815" stroke="#072815"></path><path d="M900 245.5L900 163.6L818.2 163.6Z" fill="#2c5e26" stroke="#2c5e26"></path><path d="M81.8 818.2L163.6 900L163.6 818.2Z" fill="#6b982a" stroke="#6b982a"></path><path d="M81.8 81.8L0 163.6L81.8 163.6Z" fill="#2c5e26" stroke="#2c5e26"></path><path d="M245.5 0L163.6 0L163.6 81.8Z" fill="#072815" stroke="#072815"></path><path d="M0 736.4L0 818.2L81.8 818.2Z" fill="#072815" stroke="#072815"></path><path d="M81.8 818.2L81.8 900L163.6 900Z" fill="#59892a" stroke="#59892a"></path><path d="M900 81.8L818.2 0L818.2 81.8Z" fill="#7ea629" stroke="#7ea629"></path><path d="M818.2 81.8L818.2 0L736.4 0Z" fill="#001c0d" stroke="#001c0d"></path><path d="M736.4 900L818.2 900L736.4 818.2Z" fill="#072815" stroke="#072815"></path><path d="M818.2 818.2L900 818.2L818.2 736.4Z" fill="#205023" stroke="#205023"></path><path d="M900 900L900 818.2L818.2 818.2Z" fill="#2c5e26" stroke="#2c5e26"></path><path d="M0 818.2L81.8 900L81.8 818.2Z" fill="#205023" stroke="#205023"></path><path d="M163.6 0L81.8 0L81.8 81.8Z" fill="#0d351a" stroke="#0d351a"></path><path d="M81.8 81.8L0 81.8L0 163.6Z" fill="#001c0d" stroke="#001c0d"></path><path d="M900 163.6L900 81.8L818.2 81.8Z" fill="#001c0d" stroke="#001c0d"></path><path d="M81.8 0L0 81.8L81.8 81.8Z" fill="#59892a" stroke="#59892a"></path><path d="M81.8 0L0 0L0 81.8Z" fill="#205023" stroke="#205023"></path><path d="M0 818.2L0 900L81.8 900Z" fill="#7ea629" stroke="#7ea629"></path><path d="M900 81.8L900 0L818.2 0Z" fill="#205023" stroke="#205023"></path><path d="M818.2 900L900 900L818.2 818.2Z" fill="#6b982a" stroke="#6b982a"></path></g></svg>